<mxfile host="app.diagrams.net" modified="2023-08-04T09:49:57.323Z" agent="Mozilla/5.0 (Macintosh; Intel Mac OS X 10_15_7) AppleWebKit/537.36 (KHTML, like Gecko) Chrome/115.0.0.0 Safari/537.36" etag="DnFwf2Zcl6kA8BLm11_2" version="21.6.6" type="google">
  <diagram id="C5RBs43oDa-KdzZeNtuy" name="Page-1">
    <mxGraphModel grid="1" page="1" gridSize="10" guides="1" tooltips="1" connect="1" arrows="1" fold="1" pageScale="1" pageWidth="827" pageHeight="1169" math="0" shadow="0">
      <root>
        <mxCell id="WIyWlLk6GJQsqaUBKTNV-0" />
        <mxCell id="WIyWlLk6GJQsqaUBKTNV-1" parent="WIyWlLk6GJQsqaUBKTNV-0" />
        <mxCell id="ti-82rGxI_lkgpQ6IJeS-8" value="" style="edgeStyle=orthogonalEdgeStyle;rounded=0;orthogonalLoop=1;jettySize=auto;html=1;" edge="1" parent="WIyWlLk6GJQsqaUBKTNV-1" source="ti-82rGxI_lkgpQ6IJeS-1">
          <mxGeometry relative="1" as="geometry">
            <mxPoint x="395" y="160" as="targetPoint" />
            <Array as="points">
              <mxPoint x="395" y="140" />
              <mxPoint x="395" y="140" />
            </Array>
          </mxGeometry>
        </mxCell>
        <mxCell id="ti-82rGxI_lkgpQ6IJeS-1" value="&lt;font style=&quot;font-size: 20px;&quot;&gt;Start&lt;/font&gt;" style="ellipse;whiteSpace=wrap;html=1;" vertex="1" parent="WIyWlLk6GJQsqaUBKTNV-1">
          <mxGeometry x="330" y="40" width="130" height="70" as="geometry" />
        </mxCell>
        <mxCell id="ti-82rGxI_lkgpQ6IJeS-10" value="" style="edgeStyle=orthogonalEdgeStyle;rounded=0;orthogonalLoop=1;jettySize=auto;html=1;" edge="1" parent="WIyWlLk6GJQsqaUBKTNV-1" source="ti-82rGxI_lkgpQ6IJeS-7">
          <mxGeometry relative="1" as="geometry">
            <mxPoint x="395" y="300" as="targetPoint" />
            <Array as="points">
              <mxPoint x="395" y="245" />
              <mxPoint x="396" y="245" />
            </Array>
          </mxGeometry>
        </mxCell>
        <mxCell id="ti-82rGxI_lkgpQ6IJeS-7" value="&lt;font style=&quot;font-size: 15px;&quot;&gt;&lt;font style=&quot;font-size: 15px;&quot;&gt;Input&lt;/font&gt;&lt;br&gt;&lt;span style=&quot;&quot;&gt;Sorted list of num for ascending order&lt;br&gt;and Target Value&lt;br&gt;&lt;/span&gt;&lt;/font&gt;" style="shape=parallelogram;perimeter=parallelogramPerimeter;whiteSpace=wrap;html=1;fixedSize=1;" vertex="1" parent="WIyWlLk6GJQsqaUBKTNV-1">
          <mxGeometry x="250" y="140" width="300" height="90" as="geometry" />
        </mxCell>
        <mxCell id="ti-82rGxI_lkgpQ6IJeS-14" value="" style="edgeStyle=orthogonalEdgeStyle;rounded=0;orthogonalLoop=1;jettySize=auto;html=1;" edge="1" parent="WIyWlLk6GJQsqaUBKTNV-1" source="ti-82rGxI_lkgpQ6IJeS-9">
          <mxGeometry relative="1" as="geometry">
            <mxPoint x="395" y="430" as="targetPoint" />
            <Array as="points">
              <mxPoint x="395" y="430" />
              <mxPoint x="395" y="430" />
            </Array>
          </mxGeometry>
        </mxCell>
        <mxCell id="ti-82rGxI_lkgpQ6IJeS-9" value="&lt;font style=&quot;font-size: 15px;&quot;&gt;low = 0,&lt;br&gt;high = len(sortedList) - 1&lt;/font&gt;" style="whiteSpace=wrap;html=1;" vertex="1" parent="WIyWlLk6GJQsqaUBKTNV-1">
          <mxGeometry x="277.5" y="270" width="235" height="70" as="geometry" />
        </mxCell>
        <mxCell id="ti-82rGxI_lkgpQ6IJeS-18" value="" style="edgeStyle=orthogonalEdgeStyle;rounded=0;orthogonalLoop=1;jettySize=auto;html=1;" edge="1" parent="WIyWlLk6GJQsqaUBKTNV-1" source="ti-82rGxI_lkgpQ6IJeS-13" target="ti-82rGxI_lkgpQ6IJeS-15">
          <mxGeometry relative="1" as="geometry" />
        </mxCell>
        <mxCell id="ti-82rGxI_lkgpQ6IJeS-48" value="" style="edgeStyle=orthogonalEdgeStyle;rounded=0;orthogonalLoop=1;jettySize=auto;html=1;" edge="1" parent="WIyWlLk6GJQsqaUBKTNV-1" source="ti-82rGxI_lkgpQ6IJeS-13" target="ti-82rGxI_lkgpQ6IJeS-47">
          <mxGeometry relative="1" as="geometry" />
        </mxCell>
        <mxCell id="ti-82rGxI_lkgpQ6IJeS-13" value="low &amp;lt; high" style="rhombus;whiteSpace=wrap;html=1;" vertex="1" parent="WIyWlLk6GJQsqaUBKTNV-1">
          <mxGeometry x="330" y="380" width="130" height="100" as="geometry" />
        </mxCell>
        <mxCell id="ti-82rGxI_lkgpQ6IJeS-20" value="" style="edgeStyle=orthogonalEdgeStyle;rounded=0;orthogonalLoop=1;jettySize=auto;html=1;" edge="1" parent="WIyWlLk6GJQsqaUBKTNV-1" source="ti-82rGxI_lkgpQ6IJeS-15" target="ti-82rGxI_lkgpQ6IJeS-19">
          <mxGeometry relative="1" as="geometry" />
        </mxCell>
        <mxCell id="ti-82rGxI_lkgpQ6IJeS-15" value="mid = (low + high) // 2&lt;br&gt;current = list[mid]" style="whiteSpace=wrap;html=1;" vertex="1" parent="WIyWlLk6GJQsqaUBKTNV-1">
          <mxGeometry x="300" y="520" width="190" height="90" as="geometry" />
        </mxCell>
        <mxCell id="ti-82rGxI_lkgpQ6IJeS-22" value="" style="edgeStyle=orthogonalEdgeStyle;rounded=0;orthogonalLoop=1;jettySize=auto;html=1;" edge="1" parent="WIyWlLk6GJQsqaUBKTNV-1" source="ti-82rGxI_lkgpQ6IJeS-19" target="ti-82rGxI_lkgpQ6IJeS-21">
          <mxGeometry relative="1" as="geometry" />
        </mxCell>
        <mxCell id="ti-82rGxI_lkgpQ6IJeS-27" value="" style="edgeStyle=orthogonalEdgeStyle;rounded=0;orthogonalLoop=1;jettySize=auto;html=1;" edge="1" parent="WIyWlLk6GJQsqaUBKTNV-1" source="ti-82rGxI_lkgpQ6IJeS-19" target="ti-82rGxI_lkgpQ6IJeS-26">
          <mxGeometry relative="1" as="geometry" />
        </mxCell>
        <mxCell id="ti-82rGxI_lkgpQ6IJeS-19" value="target == current" style="rhombus;whiteSpace=wrap;html=1;" vertex="1" parent="WIyWlLk6GJQsqaUBKTNV-1">
          <mxGeometry x="340" y="640" width="120" height="90" as="geometry" />
        </mxCell>
        <mxCell id="ti-82rGxI_lkgpQ6IJeS-24" value="" style="edgeStyle=orthogonalEdgeStyle;rounded=0;orthogonalLoop=1;jettySize=auto;html=1;" edge="1" parent="WIyWlLk6GJQsqaUBKTNV-1" source="ti-82rGxI_lkgpQ6IJeS-21" target="ti-82rGxI_lkgpQ6IJeS-23">
          <mxGeometry relative="1" as="geometry" />
        </mxCell>
        <mxCell id="ti-82rGxI_lkgpQ6IJeS-21" value="output mid" style="shape=parallelogram;perimeter=parallelogramPerimeter;whiteSpace=wrap;html=1;fixedSize=1;" vertex="1" parent="WIyWlLk6GJQsqaUBKTNV-1">
          <mxGeometry x="165" y="655" width="130" height="60" as="geometry" />
        </mxCell>
        <mxCell id="ti-82rGxI_lkgpQ6IJeS-23" value="end" style="ellipse;whiteSpace=wrap;html=1;" vertex="1" parent="WIyWlLk6GJQsqaUBKTNV-1">
          <mxGeometry x="30" y="645" width="100" height="80" as="geometry" />
        </mxCell>
        <mxCell id="ti-82rGxI_lkgpQ6IJeS-29" value="" style="edgeStyle=orthogonalEdgeStyle;rounded=0;orthogonalLoop=1;jettySize=auto;html=1;" edge="1" parent="WIyWlLk6GJQsqaUBKTNV-1" source="ti-82rGxI_lkgpQ6IJeS-26" target="ti-82rGxI_lkgpQ6IJeS-28">
          <mxGeometry relative="1" as="geometry" />
        </mxCell>
        <mxCell id="ti-82rGxI_lkgpQ6IJeS-31" value="" style="edgeStyle=orthogonalEdgeStyle;rounded=0;orthogonalLoop=1;jettySize=auto;html=1;" edge="1" parent="WIyWlLk6GJQsqaUBKTNV-1" source="ti-82rGxI_lkgpQ6IJeS-26" target="ti-82rGxI_lkgpQ6IJeS-30">
          <mxGeometry relative="1" as="geometry" />
        </mxCell>
        <mxCell id="ti-82rGxI_lkgpQ6IJeS-26" value="target &amp;gt; current" style="rhombus;whiteSpace=wrap;html=1;" vertex="1" parent="WIyWlLk6GJQsqaUBKTNV-1">
          <mxGeometry x="335" y="760" width="130" height="80" as="geometry" />
        </mxCell>
        <mxCell id="ti-82rGxI_lkgpQ6IJeS-34" value="" style="edgeStyle=orthogonalEdgeStyle;rounded=0;orthogonalLoop=1;jettySize=auto;html=1;" edge="1" parent="WIyWlLk6GJQsqaUBKTNV-1" source="ti-82rGxI_lkgpQ6IJeS-28" target="ti-82rGxI_lkgpQ6IJeS-30">
          <mxGeometry relative="1" as="geometry">
            <Array as="points">
              <mxPoint x="260" y="850" />
            </Array>
          </mxGeometry>
        </mxCell>
        <mxCell id="ti-82rGxI_lkgpQ6IJeS-28" value="low = mid + 1" style="shape=parallelogram;perimeter=parallelogramPerimeter;whiteSpace=wrap;html=1;fixedSize=1;" vertex="1" parent="WIyWlLk6GJQsqaUBKTNV-1">
          <mxGeometry x="150" y="770" width="140" height="60" as="geometry" />
        </mxCell>
        <mxCell id="ti-82rGxI_lkgpQ6IJeS-38" value="" style="edgeStyle=orthogonalEdgeStyle;rounded=0;orthogonalLoop=1;jettySize=auto;html=1;" edge="1" parent="WIyWlLk6GJQsqaUBKTNV-1" source="ti-82rGxI_lkgpQ6IJeS-30" target="ti-82rGxI_lkgpQ6IJeS-32">
          <mxGeometry relative="1" as="geometry" />
        </mxCell>
        <mxCell id="ti-82rGxI_lkgpQ6IJeS-55" value="" style="edgeStyle=orthogonalEdgeStyle;rounded=0;orthogonalLoop=1;jettySize=auto;html=1;" edge="1" parent="WIyWlLk6GJQsqaUBKTNV-1" source="ti-82rGxI_lkgpQ6IJeS-30">
          <mxGeometry relative="1" as="geometry">
            <mxPoint x="450" y="1000" as="targetPoint" />
            <Array as="points">
              <mxPoint x="400" y="1000" />
              <mxPoint x="440" y="1000" />
            </Array>
          </mxGeometry>
        </mxCell>
        <mxCell id="ti-82rGxI_lkgpQ6IJeS-30" value="target &amp;lt; current" style="rhombus;whiteSpace=wrap;html=1;" vertex="1" parent="WIyWlLk6GJQsqaUBKTNV-1">
          <mxGeometry x="335" y="850" width="130" height="90" as="geometry" />
        </mxCell>
        <mxCell id="ti-82rGxI_lkgpQ6IJeS-56" style="edgeStyle=orthogonalEdgeStyle;rounded=0;orthogonalLoop=1;jettySize=auto;html=1;exitX=0.5;exitY=1;exitDx=0;exitDy=0;" edge="1" parent="WIyWlLk6GJQsqaUBKTNV-1" source="ti-82rGxI_lkgpQ6IJeS-32">
          <mxGeometry relative="1" as="geometry">
            <mxPoint x="400" y="1000" as="targetPoint" />
            <Array as="points">
              <mxPoint x="215" y="1000" />
              <mxPoint x="361" y="1000" />
            </Array>
          </mxGeometry>
        </mxCell>
        <mxCell id="ti-82rGxI_lkgpQ6IJeS-32" value="high = mid - 1" style="shape=parallelogram;perimeter=parallelogramPerimeter;whiteSpace=wrap;html=1;fixedSize=1;" vertex="1" parent="WIyWlLk6GJQsqaUBKTNV-1">
          <mxGeometry x="140" y="868.75" width="150" height="52.5" as="geometry" />
        </mxCell>
        <mxCell id="ti-82rGxI_lkgpQ6IJeS-50" value="" style="edgeStyle=orthogonalEdgeStyle;rounded=0;orthogonalLoop=1;jettySize=auto;html=1;" edge="1" parent="WIyWlLk6GJQsqaUBKTNV-1" source="ti-82rGxI_lkgpQ6IJeS-47" target="ti-82rGxI_lkgpQ6IJeS-49">
          <mxGeometry relative="1" as="geometry" />
        </mxCell>
        <mxCell id="ti-82rGxI_lkgpQ6IJeS-47" value="output -1" style="shape=parallelogram;perimeter=parallelogramPerimeter;whiteSpace=wrap;html=1;fixedSize=1;" vertex="1" parent="WIyWlLk6GJQsqaUBKTNV-1">
          <mxGeometry x="180" y="400" width="120" height="60" as="geometry" />
        </mxCell>
        <mxCell id="ti-82rGxI_lkgpQ6IJeS-49" value="end" style="ellipse;whiteSpace=wrap;html=1;" vertex="1" parent="WIyWlLk6GJQsqaUBKTNV-1">
          <mxGeometry x="50" y="390" width="90" height="80" as="geometry" />
        </mxCell>
        <mxCell id="ti-82rGxI_lkgpQ6IJeS-57" style="edgeStyle=orthogonalEdgeStyle;rounded=0;orthogonalLoop=1;jettySize=auto;html=1;" edge="1" parent="WIyWlLk6GJQsqaUBKTNV-1">
          <mxGeometry relative="1" as="geometry">
            <mxPoint x="450" y="1000" as="sourcePoint" />
            <mxPoint x="460" y="430" as="targetPoint" />
            <Array as="points">
              <mxPoint x="450" y="1000" />
              <mxPoint x="750" y="1000" />
              <mxPoint x="750" y="430" />
            </Array>
          </mxGeometry>
        </mxCell>
      </root>
    </mxGraphModel>
  </diagram>
</mxfile>
